<?xml version="1.0" encoding="UTF-8"?>
<!DOCTYPE svg PUBLIC "-//W3C//DTD SVG 1.1//EN" "http://www.w3.org/Graphics/SVG/1.1/DTD/svg11.dtd">
<!-- Creator: CorelDRAW -->
<svg xmlns="http://www.w3.org/2000/svg" xml:space="preserve" width="1000px" height="1377px" version="1.1" style="shape-rendering:geometricPrecision; text-rendering:geometricPrecision; image-rendering:optimizeQuality; fill-rule:evenodd; clip-rule:evenodd"
viewBox="0 0 998.71 1374.98"
 xmlns:xlink="http://www.w3.org/1999/xlink"
 xmlns:xodm="http://www.corel.com/coreldraw/odm/2003">
 <defs>
  <style type="text/css">
   <![CDATA[
    .str0 {stroke:white;stroke-width:2 ;stroke-miterlimit:22.9256}
    .fil0 {fill:white}
   ]]>
  </style>
 </defs>
 <g id="Слой_x0020_1">
  <metadata id="CorelCorpID_0Corel-Layer"/>
  <g id="_2709584780480">
   <path class="fil0 str0" d="M93.25 840.48c45.42,-17.13 237.55,-102.94 245.91,-102.28 5.6,0.44 112.93,46.73 127.05,52.95 16.42,7.23 120.96,49.5 126.26,53.89l-95.84 41.8c-10.34,4.08 -20.74,8.79 -30.94,13.29 -21.35,9.41 -41.64,18.29 -63.69,27.96 -8.36,3.67 -58.79,26.03 -63.85,25.8 -8.67,-0.39 -241.36,-106.34 -253.69,-107.81 2.57,-3.61 1.84,-2.98 8.79,-5.6zm542.95 -32.87c-78.52,-32.06 -162.63,-70.69 -239.82,-101.52 -18.56,-7.41 -46.69,-21.31 -67.32,-17.18 -18.24,3.65 -262.35,107.52 -300.24,123.67 -29.78,12.7 -27.41,22.73 -27.4,57.79 0.01,35.69 -1.8,329.37 1.25,338.41 6.95,20.61 28.14,25.65 49.44,35.95 19,9.19 38.59,18.56 58.33,27.07 39.12,16.85 76.2,37.73 116.13,54.4 9.13,3.82 19.89,8.78 29.33,13.41 9.85,4.82 19.12,8.85 29.18,13.56 33.18,15.52 48.18,29.76 77.15,14.14l188.82 -87.88c9.59,-4.6 20.04,-8.87 29.13,-13.45 18.87,-9.51 37.26,-17.19 57.11,-26.75 23.62,-11.39 39.8,-13.79 39.87,-46.4l0.12 -339.86c0.02,-32.38 -15.93,-35.08 -41.08,-45.36zm-272.98 191.58l132.52 -56.3c13.69,-5.74 123.12,-54.91 132.27,-57.27l0.24 302.31c-44.06,20.88 -88.24,40.57 -132.39,61.64 -42.92,20.48 -88.23,42.41 -132.36,61.23l-0.28 -311.61zm-313.3 -114.49l264.56 114.65 -0.16 311.85 -100.65 -46.35c-10.72,-4.78 -21.5,-10.83 -32.04,-15.27 -11.52,-4.86 -21.33,-10.21 -33.45,-15.66 -31.8,-14.28 -68.45,-33.13 -98.08,-45.85l-0.08 -281.34 -0.1 -22.03z"/>
   <path class="fil0 str0" d="M157.56 443.8l82.87 95.8c9.02,9.66 18.65,19.17 26.68,30.15l36.88 42.19c9.71,10.45 32.75,46.7 61.86,9.66l31 -35.26c2.67,-3.62 2.17,-2.7 5.29,-5.88l46.29 -54.85c5.26,-5.47 6.36,-7.64 10.28,-11.77l52.65 -61.2c2.57,-3.19 2.45,-2.58 5.41,-5.71l51.27 -59.33c2.61,-2.63 2.58,-3.01 4.95,-6.1l10.2 -11.97c12.01,-13.29 22.45,-31.31 8.67,-48.61 -8.26,-10.36 -18.82,-10.91 -35.8,-10.85 -28.76,0.1 -61.63,-1.55 -89.81,0.23 -1.71,-71.7 -0.07,-145.64 -0.03,-217.58 0.03,-37.13 4.51,-69.49 -23.75,-85.53 -17.28,-9.82 -80.44,-5.22 -104.54,-5.22 -22.95,0 -86.54,-4.05 -103.01,5.17 -30.91,17.31 -25.6,44.4 -25.48,84 0.23,73.01 -0.37,146.07 0.03,219.07 -28.88,-0.98 -59.02,-0.02 -88.08,-0.15 -15.47,-0.07 -26.63,-1.3 -36.18,8.82 -7.83,8.29 -11.11,21.46 -4.42,34.03 4.47,8.41 14.45,17.63 19.53,24.85l52.53 59.66c2.09,2.97 2.17,3.69 4.71,6.38zm6.18 -69.35c-3.59,-4.46 -7.87,-8.39 -10.5,-12.85 116.65,-4.75 106.45,24.02 106.37,-101.34 -0.02,-34.76 -0.14,-69.56 -0.02,-104.32 0.1,-33.31 1.46,-70.33 -0.26,-103.41l157 -0.14c-2.14,68.38 -0.4,140.71 -0.15,209.45 0.08,23.23 -5.88,83.67 9.05,94.45 13.14,9.49 77.51,5.61 98.04,5.04l-63.6 74.42c-6.78,9.65 -15.56,17.71 -23.13,27.51 -3.18,4.12 -2.17,2.12 -5.41,5.51l-90.24 107.25c-4.43,-1.48 -26.22,-27.45 -29.96,-32.72l-76.37 -88.03c-2.97,-3.23 -3.26,-2.33 -6.31,-6.22 -10.3,-13.16 -14.19,-15.29 -23.16,-27.5l-41.35 -47.1z"/>
   <path class="fil0 str0" d="M715.32 707.18c-5.2,6.2 -19.62,17.35 -21.86,25.93 -4.53,17.33 11.29,30.22 20.49,37.74 3.17,2.58 3.9,3.56 6.46,6.34l40.45 41.66c3.34,2.53 3.47,2.7 6.54,6.16 4.09,4.6 7.19,7.86 10.98,12.69 22.27,28.42 55.76,10.73 46.54,-18.01 -3.13,-9.76 -15.57,-20.49 -20.99,-26.49l-23.9 -25.12c33.12,0.65 52.15,1.86 80.88,15.59 10.23,4.88 23.05,13.02 30.11,18.95 9.51,8.01 26.48,27.27 33.32,39.36 32.42,57.33 31.86,121.1 -6.22,175.55 -12.78,18.26 -10.84,11.87 -18.05,19.82 -10.19,11.23 -10.94,12.02 -27.17,21.8 -60.2,36.27 -100.97,10.51 -120.14,25.33 -11.33,8.76 -11.73,24.94 -5.56,34.17 8.94,13.36 26.74,11.1 41.21,11.1 48.35,0 82.54,-9.32 121.45,-35.12 10.74,-7.12 19.71,-15.74 28.65,-25.1l12.13 -13.26c4.36,-5.58 7.1,-8.82 11.49,-15.46 23.63,-35.74 36.96,-78.45 35.6,-123.02 -1.5,-49.47 -21.27,-104.38 -58.53,-138.13l-16.92 -16.4c-0.35,-0.31 -1.26,-1.26 -1.61,-1.57 -0.24,-0.21 -0.57,-0.53 -0.82,-0.74 -39.29,-32.38 -94.78,-45 -146.72,-42.01 8.92,-9.64 15.31,-16.09 23.58,-25.19l23.25 -24.19c17.52,-28.31 -10.06,-54.84 -34.38,-34.42l-23.12 24.36c-5.78,7.54 -32.75,30.5 -47.14,47.68z"/>
  </g>
 </g>
</svg>
